<svg width="17" height="16" viewBox="0 0 17 16" fill="none" xmlns="http://www.w3.org/2000/svg">
<path fill-rule="evenodd" clip-rule="evenodd" d="M5 0.5H6V1.5H12V0.5H13V1.5H14.5C15.163 1.5 15.7989 1.76339 16.2678 2.23223C16.7366 2.70107 17 3.33696 17 4V6V13C17 13.663 16.7366 14.2989 16.2678 14.7678C15.7989 15.2366 15.163 15.5 14.5 15.5H9V14.5H14.5C14.8978 14.5 15.2794 14.342 15.5607 14.0607C15.842 13.7794 16 13.3978 16 13V6.5H2V7.5H1V6V4C1 2.62386 2.12386 1.5 3.5 1.5H5V0.5ZM5 3.5V2.5H3.5C2.67614 2.5 2 3.17614 2 4V5.5H16V4C16 3.60218 15.842 3.22064 15.5607 2.93934C15.2794 2.65804 14.8978 2.5 14.5 2.5H13V3.5H12V2.5H6V3.5H5ZM7.85355 11.6464L4.35355 8.14645L3.64645 8.85355L6.29289 11.5H0V12.5H6.29289L3.64645 15.1464L4.35355 15.8536L7.85355 12.3536L8.20711 12L7.85355 11.6464Z" fill="#222222"/>
</svg>
