<svg width="25" height="25" viewBox="0 0 25 25" fill="none" xmlns="http://www.w3.org/2000/svg">
<path d="M12.8906 23.4375C9.88622 23.4375 7.00487 22.244 4.88043 20.1196C2.756 17.9951 1.5625 15.1138 1.5625 12.1094C1.5625 7.51953 4.19922 3.4043 8.28174 1.62744C8.42562 1.56473 8.58505 1.54682 8.73927 1.57603C8.89348 1.60524 9.03532 1.68022 9.1463 1.7912C9.25728 1.90218 9.33226 2.04402 9.36147 2.19823C9.39068 2.35244 9.37277 2.51188 9.31006 2.65576C8.84131 3.73193 8.59375 5.11035 8.59375 6.64062C8.59375 12.0254 12.9746 16.4062 18.3594 16.4062C19.8896 16.4062 21.2681 16.1587 22.3442 15.6899C22.4881 15.6272 22.6476 15.6093 22.8018 15.6385C22.956 15.6677 23.0978 15.7427 23.2088 15.8537C23.3198 15.9647 23.3948 16.1065 23.424 16.2607C23.4532 16.4149 23.4353 16.5744 23.3726 16.7183C21.5957 20.8008 17.4805 23.4375 12.8906 23.4375Z" fill="black"/>
</svg>
