<svg width="23" height="28" viewBox="0 0 26 33" fill="none" xmlns="http://www.w3.org/2000/svg">
<path d="M4.79413 1V6.47059M4.79413 21.0588V28.3529" stroke="black" stroke-width="2" stroke-linecap="round"/>
<path d="M3.51768 6.47058C2.88896 6.47058 2.286 6.72034 1.84142 7.16491C1.39685 7.60948 1.14709 8.21245 1.14709 8.84117V18.6882C1.14709 18.9995 1.20841 19.3078 1.32754 19.5954C1.44668 19.883 1.62129 20.1444 1.84142 20.3645C2.06155 20.5846 2.32289 20.7592 2.6105 20.8784C2.89811 20.9975 3.20637 21.0588 3.51768 21.0588H6.07062C6.38193 21.0588 6.6902 20.9975 6.97781 20.8784C7.26542 20.7592 7.52675 20.5846 7.74688 20.3645C7.96701 20.1444 8.14163 19.883 8.26076 19.5954C8.37989 19.3078 8.44121 18.9995 8.44121 18.6882V8.84117C8.44121 8.21245 8.19145 7.60948 7.74688 7.16491C7.30231 6.72034 6.69934 6.47058 6.07062 6.47058H3.51768Z" stroke="black" stroke-width="2"/>
<path d="M21.2059 6.47058V15.5882M21.2059 24.7059V32" stroke="black" stroke-width="2" stroke-linecap="round"/>
<path d="M19.9294 15.5882C19.3007 15.5882 18.6977 15.838 18.2532 16.2826C17.8086 16.7271 17.5588 17.3301 17.5588 17.9588V22.3353C17.5588 22.964 17.8086 23.567 18.2532 24.0115C18.6977 24.4561 19.3007 24.7059 19.9294 24.7059H22.4824C22.7937 24.7059 23.1019 24.6446 23.3896 24.5254C23.6772 24.4063 23.9385 24.2317 24.1586 24.0115C24.3788 23.7914 24.5534 23.5301 24.6725 23.2425C24.7916 22.9549 24.853 22.6466 24.853 22.3353V17.9588C24.853 17.6475 24.7916 17.3392 24.6725 17.0516C24.5534 16.764 24.3788 16.5027 24.1586 16.2826C23.9385 16.0624 23.6772 15.8878 23.3896 15.7687C23.1019 15.6495 22.7937 15.5882 22.4824 15.5882H19.9294Z" stroke="black" stroke-width="2"/>
</svg>
