<svg width="28" height="28" viewBox="0 0 28 28" fill="none" xmlns="http://www.w3.org/2000/svg">
<path d="M13.8017 10.5L17.5 14.1867V14C17.5 13.0717 17.1313 12.1815 16.4749 11.5251C15.8185 10.8687 14.9283 10.5 14 10.5H13.8017ZM8.78502 11.4333L10.5934 13.2417C10.535 13.4867 10.5 13.7317 10.5 14C10.5 14.9283 10.8688 15.8185 11.5251 16.4749C12.1815 17.1313 13.0718 17.5 14 17.5C14.2567 17.5 14.5134 17.465 14.7584 17.4067L16.5667 19.215C15.785 19.6 14.9217 19.8333 14 19.8333C12.4529 19.8333 10.9692 19.2188 9.87523 18.1248C8.78127 17.0308 8.16669 15.5471 8.16669 14C8.16669 13.0783 8.40002 12.215 8.78502 11.4333ZM2.33335 4.98167L4.99335 7.64167L5.51835 8.16667C3.59335 9.68333 2.07669 11.6667 1.16669 14C3.18502 19.1217 8.16669 22.75 14 22.75C15.8084 22.75 17.535 22.4 19.11 21.77L19.6117 22.26L23.0184 25.6667L24.5 24.185L3.81502 3.5M14 8.16667C15.5471 8.16667 17.0308 8.78125 18.1248 9.87521C19.2188 10.9692 19.8334 12.4529 19.8334 14C19.8334 14.7467 19.6817 15.47 19.4134 16.1233L22.8317 19.5417C24.5817 18.0833 25.9817 16.17 26.8334 14C24.815 8.87833 19.8334 5.25 14 5.25C12.3667 5.25 10.8034 5.54167 9.33335 6.06667L11.865 8.575C12.53 8.31833 13.2417 8.16667 14 8.16667Z" fill="black"/>
</svg>
