<svg width="28" height="28" viewBox="0 0 28 28" fill="none" xmlns="http://www.w3.org/2000/svg">
<g clip-path="url(#clip0_1_529)">
<path d="M9.114 3.07999C7.18536 3.07999 5.6 4.66507 5.6 6.59399C5.6 7.68235 6.10456 8.66039 6.8908 9.30663L4.05468 15.1665C3.87604 15.1368 3.69535 15.1213 3.51428 15.12C1.5848 15.12 0 16.7051 0 18.634C0 20.5632 1.58508 22.148 3.514 22.148C5.37656 22.148 6.90368 20.6673 7.0084 18.8294C7.02144 18.7652 7.02801 18.6998 7.028 18.6343C7.02801 18.5687 7.02144 18.5033 7.0084 18.4391C6.95352 17.4756 6.50524 16.6129 5.8254 16.0076L8.69372 10.08C8.83204 10.0968 8.97176 10.108 9.11428 10.108C10.4059 10.108 11.5354 9.39511 12.1416 8.34539L17.1276 9.66335C17.3891 11.2999 18.7936 12.5709 20.4882 12.6224L22.4498 18.6021C21.5746 19.2433 21 20.2753 21 21.434C21 23.3632 22.5851 24.948 24.514 24.948C26.3766 24.948 27.9037 23.4673 28.0084 21.6294C28.0214 21.5652 28.028 21.4998 28.028 21.4343C28.028 21.3687 28.0214 21.3033 28.0084 21.2391C27.9034 19.4012 26.3763 17.92 24.514 17.92C24.4395 17.92 24.3664 17.9261 24.2928 17.9312L22.3874 12.1231C23.3537 11.5379 24.0204 10.5 24.0881 9.30943C24.1012 9.24519 24.1077 9.17981 24.1077 9.11427C24.1077 9.04872 24.1012 8.98334 24.0881 8.91911C23.9837 7.08119 22.4566 5.59999 20.5943 5.59999C19.1663 5.59999 17.929 6.46967 17.3813 7.70335L12.6157 6.44335C12.6135 6.42854 12.611 6.41379 12.6081 6.39911C12.5037 4.56119 10.9763 3.07999 9.114 3.07999ZM9.11428 5.03999C9.98424 5.03999 10.6683 5.72431 10.6683 6.59399C10.6683 7.46395 9.98424 8.14799 9.11428 8.14799C8.2446 8.14799 7.56028 7.46395 7.56028 6.59399C7.56028 5.72431 8.2446 5.03999 9.11428 5.03999ZM20.5943 7.55999C21.4642 7.55999 22.1483 8.24431 22.1483 9.11399C22.1483 9.98395 21.4642 10.668 20.5943 10.668C19.7246 10.668 19.0403 9.98395 19.0403 9.11399C19.0403 8.24431 19.7246 7.55999 20.5943 7.55999ZM3.51428 17.08C4.38424 17.08 5.06828 17.7643 5.06828 18.634C5.06828 19.5039 4.38424 20.188 3.51428 20.188C2.6446 20.188 1.96 19.5039 1.96 18.634C1.96 17.7646 2.6446 17.08 3.51428 17.08ZM24.514 19.88C25.384 19.88 26.068 20.5643 26.068 21.434C26.068 22.3039 25.384 22.988 24.514 22.988C23.6443 22.988 22.96 22.3039 22.96 21.434C22.96 20.5643 23.6443 19.88 24.514 19.88Z" fill="black"/>
</g>
<defs>
<clipPath id="clip0_1_529">
<rect width="28" height="28" fill="white"/>
</clipPath>
</defs>
</svg>
