<svg width="26" height="26" viewBox="0 0 28 28" fill="none" xmlns="http://www.w3.org/2000/svg">
<path d="M2.33331 18.2187C2.33331 19.2068 3.12898 20.0025 4.71915 21.5927L6.40731 23.2808C7.99748 24.871 8.79315 25.6667 9.78131 25.6667C10.7695 25.6667 11.5663 24.871 13.1565 23.2808L23.2808 13.1565C24.871 11.5652 25.6666 10.7683 25.6666 9.78133C25.6666 8.79433 24.871 7.9975 23.2808 6.40733L21.5926 4.71916C20.0025 3.129 19.2068 2.33333 18.2186 2.33333C17.339 2.33333 16.6133 2.96333 15.344 4.221C15.3792 4.2468 15.4123 4.27527 15.4431 4.30616L17.094 5.957C17.1775 6.03775 17.2441 6.13433 17.2899 6.24111C17.3357 6.34788 17.3598 6.46271 17.3608 6.57889C17.3617 6.69508 17.3395 6.81028 17.2955 6.9178C17.2514 7.02531 17.1864 7.12297 17.1042 7.20509C17.022 7.28721 16.9243 7.35213 16.8168 7.39608C16.7092 7.44002 16.594 7.46211 16.4778 7.46104C16.3616 7.45998 16.2468 7.43579 16.1401 7.38988C16.0333 7.34398 15.9368 7.27727 15.8561 7.19366L14.2065 5.54399C14.1752 5.51278 14.1464 5.47924 14.1201 5.44366L12.8683 6.6955C12.9042 6.72134 12.9377 6.75022 12.9686 6.78183L15.4431 9.25633C15.5291 9.33643 15.5981 9.43303 15.6459 9.54037C15.6937 9.6477 15.7194 9.76357 15.7215 9.88105C15.7236 9.99854 15.702 10.1152 15.658 10.2242C15.6139 10.3331 15.5484 10.4321 15.4654 10.5152C15.3823 10.5983 15.2833 10.6638 15.1743 10.7078C15.0654 10.7518 14.9487 10.7734 14.8312 10.7714C14.7137 10.7693 14.5979 10.7436 14.4905 10.6957C14.3832 10.6479 14.2866 10.579 14.2065 10.493L11.7308 8.01966C11.6995 7.98805 11.6707 7.95412 11.6445 7.91816L10.395 9.17C10.43 9.19566 10.4626 9.22483 10.4953 9.25633L12.145 10.906C12.2995 11.0719 12.3837 11.2913 12.3797 11.5179C12.3757 11.7446 12.2839 11.9609 12.1235 12.1212C11.9632 12.2815 11.7469 12.3734 11.5203 12.3774C11.2936 12.3814 11.0742 12.2972 10.9083 12.1427L9.25515 10.4953C9.2239 10.4641 9.19504 10.4306 9.16881 10.395L7.91815 11.6433C7.95315 11.669 7.98815 11.6982 8.01848 11.7297L10.4941 14.2053C10.6535 14.3704 10.7416 14.5915 10.7395 14.8209C10.7373 15.0503 10.6452 15.2698 10.4829 15.4319C10.3206 15.5941 10.1011 15.686 9.87167 15.6879C9.64225 15.6898 9.42127 15.6015 9.25631 15.442L6.78181 12.9675C6.75055 12.9363 6.72169 12.9027 6.69548 12.8672L5.44365 14.119C5.47951 14.1448 5.51308 14.1737 5.54398 14.2053L7.19365 15.855C7.34821 16.0209 7.43235 16.2403 7.42835 16.4669C7.42435 16.6936 7.33252 16.9099 7.17221 17.0702C7.01189 17.2305 6.79561 17.3224 6.56892 17.3264C6.34224 17.3304 6.12285 17.2462 5.95698 17.0917L4.30498 15.4443C4.27418 15.4134 4.24571 15.3803 4.21981 15.3452C2.96215 16.6133 2.33331 17.339 2.33331 18.2187Z" fill="black"/>
</svg>
