<svg width="20" height="20" viewBox="0 0 20 22" fill="none" xmlns="http://www.w3.org/2000/svg">
<path d="M0.333313 1.66666C0.333313 1.31304 0.473789 0.973901 0.723838 0.723853C0.973886 0.473804 1.31302 0.333328 1.66665 0.333328H18.3333C18.6869 0.333328 19.0261 0.473804 19.2761 0.723853C19.5262 0.973901 19.6666 1.31304 19.6666 1.66666V4.33333C19.6666 4.68695 19.5262 5.02609 19.2761 5.27614C19.0261 5.52619 18.6869 5.66666 18.3333 5.66666C17.9797 5.66666 17.6406 5.52619 17.3905 5.27614C17.1405 5.02609 17 4.68695 17 4.33333V2.99999H11.3333V19H12.6666C13.0203 19 13.3594 19.1405 13.6095 19.3905C13.8595 19.6406 14 19.9797 14 20.3333C14 20.6869 13.8595 21.0261 13.6095 21.2761C13.3594 21.5262 13.0203 21.6667 12.6666 21.6667H7.33331C6.97969 21.6667 6.64055 21.5262 6.3905 21.2761C6.14046 21.0261 5.99998 20.6869 5.99998 20.3333C5.99998 19.9797 6.14046 19.6406 6.3905 19.3905C6.64055 19.1405 6.97969 19 7.33331 19H8.66665V2.99999H2.99998V4.33333C2.99998 4.68695 2.8595 5.02609 2.60945 5.27614C2.35941 5.52619 2.02027 5.66666 1.66665 5.66666C1.31302 5.66666 0.973886 5.52619 0.723838 5.27614C0.473789 5.02609 0.333313 4.68695 0.333313 4.33333V1.66666Z" fill="black"/>
</svg>
