<svg width="20" height="22" viewBox="0 0 20 24" fill="none" xmlns="http://www.w3.org/2000/svg">
<path d="M1.42857 21.75C1.42857 22.3467 1.65434 22.919 2.0562 23.341C2.45806 23.763 3.00311 24 3.57143 24H16.4286C16.9969 24 17.5419 23.763 17.9438 23.341C18.3457 22.919 18.5714 22.3467 18.5714 21.75V6.00001H1.42857V21.75ZM13.5714 9.75001C13.5714 9.5511 13.6467 9.36033 13.7806 9.21968C13.9146 9.07903 14.0963 9.00001 14.2857 9.00001C14.4752 9.00001 14.6568 9.07903 14.7908 9.21968C14.9247 9.36033 15 9.5511 15 9.75001V20.25C15 20.4489 14.9247 20.6397 14.7908 20.7803C14.6568 20.921 14.4752 21 14.2857 21C14.0963 21 13.9146 20.921 13.7806 20.7803C13.6467 20.6397 13.5714 20.4489 13.5714 20.25V9.75001ZM9.28571 9.75001C9.28571 9.5511 9.36097 9.36033 9.49492 9.21968C9.62888 9.07903 9.81056 9.00001 10 9.00001C10.1894 9.00001 10.3711 9.07903 10.5051 9.21968C10.639 9.36033 10.7143 9.5511 10.7143 9.75001V20.25C10.7143 20.4489 10.639 20.6397 10.5051 20.7803C10.3711 20.921 10.1894 21 10 21C9.81056 21 9.62888 20.921 9.49492 20.7803C9.36097 20.6397 9.28571 20.4489 9.28571 20.25V9.75001ZM5 9.75001C5 9.5511 5.07526 9.36033 5.20921 9.21968C5.34316 9.07903 5.52485 9.00001 5.71429 9.00001C5.90373 9.00001 6.08541 9.07903 6.21936 9.21968C6.35332 9.36033 6.42857 9.5511 6.42857 9.75001V20.25C6.42857 20.4489 6.35332 20.6397 6.21936 20.7803C6.08541 20.921 5.90373 21 5.71429 21C5.52485 21 5.34316 20.921 5.20921 20.7803C5.07526 20.6397 5 20.4489 5 20.25V9.75001ZM19.2857 1.50001H13.9286L13.5089 0.623446C13.42 0.436046 13.2831 0.27841 13.1135 0.16827C12.944 0.0581305 12.7485 -0.000141936 12.5491 8.21846e-06H7.44643C7.24749 -0.000794775 7.05236 0.0572604 6.8834 0.167522C6.71443 0.277784 6.57846 0.435793 6.49107 0.623446L6.07143 1.50001H0.714286C0.524845 1.50001 0.343164 1.57903 0.209209 1.71968C0.0752549 1.86033 0 2.0511 0 2.25001L0 3.75001C0 3.94892 0.0752549 4.13969 0.209209 4.28034C0.343164 4.42099 0.524845 4.50001 0.714286 4.50001H19.2857C19.4752 4.50001 19.6568 4.42099 19.7908 4.28034C19.9247 4.13969 20 3.94892 20 3.75001V2.25001C20 2.0511 19.9247 1.86033 19.7908 1.71968C19.6568 1.57903 19.4752 1.50001 19.2857 1.50001Z" fill="black"/>
</svg>
