<svg width="22" height="22" viewBox="0 0 22 22" fill="none" xmlns="http://www.w3.org/2000/svg">
<path d="M18.3333 18.3333L14.6208 14.6208M14.6208 14.6208C15.2167 14.025 15.6894 13.3176 16.0119 12.539C16.3344 11.7605 16.5003 10.926 16.5003 10.0833C16.5003 9.24065 16.3344 8.40621 16.0119 7.62767C15.6894 6.84912 15.2167 6.14172 14.6208 5.54585C14.025 4.94997 13.3176 4.4773 12.539 4.15482C11.7605 3.83233 10.926 3.66635 10.0833 3.66635C9.24065 3.66635 8.40621 3.83233 7.62767 4.15482C6.84912 4.4773 6.14172 4.94997 5.54585 5.54585C4.34243 6.74927 3.66635 8.38145 3.66635 10.0833C3.66635 11.7852 4.34243 13.4174 5.54585 14.6208C6.74927 15.8243 8.38145 16.5003 10.0833 16.5003C11.7852 16.5003 13.4174 15.8243 14.6208 14.6208Z" stroke="#808080" stroke-width="2" stroke-linecap="round" stroke-linejoin="round"/>
</svg>
